{
  "accessors": [
    {
      "bufferView": 2,
      "componentType": 5126,
      "count": 40949,
      "max": [
        9.643848419189453,
        29.745609283447266,
        9.623868942260742
      ],
      "min": [
        -8.576764106750488,
        -46.05027770996094,
        -8.65088176727295
      ],
      "type": "VEC3"
    },
    {
      "bufferView": 2,
      "byteOffset": 491388,
      "componentType": 5126,
      "count": 40949,
      "max": [
        0.9999972581863403,
        0.9999921321868896,
        0.9999880194664001
      ],
      "min": [
        -0.9999504685401917,
        -0.9999731183052063,
        -0.9997037649154663
      ],
      "type": "VEC3"
    },
    {
      "bufferView": 1,
      "componentType": 5126,
      "count": 40949,
      "max": [
        0.9916359782218933,
        0.9999240040779114
      ],
      "min": [
        0.0010019999463111162,
        0.022360000759363174
      ],
      "type": "VEC2"
    },
    {
      "bufferView": 0,
      "componentType": 5125,
      "count": 214584,
      "type": "SCALAR"
    },
    {
      "bufferView": 2,
      "byteOffset": 982776,
      "componentType": 5126,
      "count": 61304,
      "max": [
        11.011833190917969,
        29.752901077270508,
        12.879549026489258
      ],
      "min": [
        -7.537363052368164,
        -46.151275634765625,
        -12.270772933959961
      ],
      "type": "VEC3"
    },
    {
      "bufferView": 2,
      "byteOffset": 1718424,
      "componentType": 5126,
      "count": 61304,
      "max": [
        0.9999725818634033,
        0.9999921321868896,
        0.9999809861183167
      ],
      "min": [
        -0.9999856352806091,
        -0.9999937415122986,
        -0.9999510049819946
      ],
      "type": "VEC3"
    },
    {
      "bufferView": 1,
      "byteOffset": 327592,
      "componentType": 5126,
      "count": 61304,
      "max": [
        0.9989659786224365,
        0.9990190267562866
      ],
      "min": [
        0.0009790000040084124,
        0.004441000055521727
      ],
      "type": "VEC2"
    },
    {
      "bufferView": 0,
      "byteOffset": 858336,
      "componentType": 5125,
      "count": 315252,
      "type": "SCALAR"
    },
    {
      "bufferView": 2,
      "byteOffset": 2454072,
      "componentType": 5126,
      "count": 45121,
      "max": [
        11.047069549560547,
        29.82073974609375,
        12.919947624206543
      ],
      "min": [
        -8.701648712158203,
        -46.128173828125,
        -12.291845321655273
      ],
      "type": "VEC3"
    },
    {
      "bufferView": 2,
      "byteOffset": 2995524,
      "componentType": 5126,
      "count": 45121,
      "max": [
        0.9999648928642273,
        0.9996052384376526,
        0.9999880194664001
      ],
      "min": [
        -0.9999962449073792,
        -0.9999988675117493,
        -0.9999953508377075
      ],
      "type": "VEC3"
    },
    {
      "bufferView": 1,
      "byteOffset": 818024,
      "componentType": 5126,
      "count": 45121,
      "max": [
        0.99726802110672,
        0.9990190267562866
      ],
      "min": [
        0.000999000039882958,
        0.32229098677635193
      ],
      "type": "VEC2"
    },
    {
      "bufferView": 0,
      "byteOffset": 2119344,
      "componentType": 5125,
      "count": 231753,
      "type": "SCALAR"
    }
  ],
  "asset": {
    "extras": {
      "author": "Zardoz555 (https://sketchfab.com/Zardoz555)",
      "license": "CC-BY-4.0 (http://creativecommons.org/licenses/by/4.0/)",
      "source": "https://sketchfab.com/3d-models/a-girl-named-aphrodite-7ffcea53ec414da993b8312bee8009bf",
      "title": "A girl named Aphrodite"
    },
    "generator": "Sketchfab-12.63.0",
    "version": "2.0"
  },
  "bufferViews": [
    {
      "buffer": 0,
      "byteLength": 3046356,
      "name": "floatBufferViews",
      "target": 34963
    },
    {
      "buffer": 0,
      "byteLength": 1178992,
      "byteOffset": 3046356,
      "byteStride": 8,
      "name": "floatBufferViews",
      "target": 34962
    },
    {
      "buffer": 0,
      "byteLength": 3536976,
      "byteOffset": 4225348,
      "byteStride": 12,
      "name": "floatBufferViews",
      "target": 34962
    }
  ],
  "buffers": [
    {
      "byteLength": 7762324,
      "uri": "scene.bin"
    }
  ],
  "materials": [
    {
      "doubleSided": true,
      "name": "Material_0",
      "pbrMetallicRoughness": {
        "metallicFactor": 0.0,
        "roughnessFactor": 0.6
      }
    },
    {
      "doubleSided": true,
      "name": "Material_1",
      "pbrMetallicRoughness": {
        "metallicFactor": 0.0,
        "roughnessFactor": 0.6
      }
    },
    {
      "doubleSided": true,
      "name": "Material_2",
      "pbrMetallicRoughness": {
        "metallicFactor": 0.0,
        "roughnessFactor": 0.6
      }
    }
  ],
  "meshes": [
    {
      "name": "Object_0",
      "primitives": [
        {
          "attributes": {
            "NORMAL": 1,
            "POSITION": 0,
            "TEXCOORD_0": 2
          },
          "indices": 3,
          "material": 0,
          "mode": 4
        }
      ]
    },
    {
      "name": "Object_1",
      "primitives": [
        {
          "attributes": {
            "NORMAL": 5,
            "POSITION": 4,
            "TEXCOORD_0": 6
          },
          "indices": 7,
          "material": 1,
          "mode": 4
        }
      ]
    },
    {
      "name": "Object_2",
      "primitives": [
        {
          "attributes": {
            "NORMAL": 9,
            "POSITION": 8,
            "TEXCOORD_0": 10
          },
          "indices": 11,
          "material": 2,
          "mode": 4
        }
      ]
    }
  ],
  "nodes": [
    {
      "children": [
        1
      ],
      "matrix": [
        0.678792417049408,
        -0.24474567174911516,
        0.6923441290855408,
        0.0,
        -0.13529935479164124,
        -0.9683660864830017,
        -0.20966920256614707,
        0.0,
        0.721758246421814,
        0.04864814504981056,
        -0.6904335021972656,
        0.0,
        -0.954674243927002,
        -7.321458339691163,
        5.858221054077147,
        1.0
      ],
      "name": "Sketchfab_model"
    },
    {
      "children": [
        2,
        3,
        4
      ],
      "name": "aphroditev1-exported.obj.cleaner.materialmerger.gles"
    },
    {
      "mesh": 0,
      "name": "Object_2"
    },
    {
      "mesh": 1,
      "name": "Object_3"
    },
    {
      "mesh": 2,
      "name": "Object_4"
    }
  ],
  "scene": 0,
  "scenes": [
    {
      "name": "Sketchfab_Scene",
      "nodes": [
        0
      ]
    }
  ]
}
